<mxfile host="app.diagrams.net" modified="2023-06-16T11:05:41.956Z" agent="Mozilla/5.0 (Windows NT 10.0; Win64; x64) AppleWebKit/537.36 (KHTML, like Gecko) Chrome/115.0.0.0 Safari/537.36 Edg/115.0.0.0" etag="ktCBM_I56EWYjhHpFELP" version="21.4.0" type="github">
  <diagram name="Page-1" id="SL4JazkdYAUm5WzU69tA">
    <mxGraphModel dx="791" dy="455" grid="1" gridSize="10" guides="1" tooltips="1" connect="1" arrows="1" fold="1" page="1" pageScale="1" pageWidth="850" pageHeight="1100" math="0" shadow="0">
      <root>
        <mxCell id="0" />
        <mxCell id="1" parent="0" />
        <mxCell id="tMpePVOGPKYDXHrfdb_O-1" value="&lt;span style=&quot;font-size: 25px;&quot;&gt;MCU&lt;/span&gt;" style="rounded=1;whiteSpace=wrap;html=1;" vertex="1" parent="1">
          <mxGeometry x="360" y="380" width="120" height="60" as="geometry" />
        </mxCell>
        <mxCell id="tMpePVOGPKYDXHrfdb_O-2" value="&lt;span style=&quot;font-size: 25px;&quot;&gt;H Bridge&lt;/span&gt;" style="rounded=1;whiteSpace=wrap;html=1;" vertex="1" parent="1">
          <mxGeometry x="150" y="530" width="200" height="110" as="geometry" />
        </mxCell>
        <mxCell id="tMpePVOGPKYDXHrfdb_O-3" value="&lt;span style=&quot;font-size: 25px;&quot;&gt;Motor&lt;/span&gt;" style="rounded=1;whiteSpace=wrap;html=1;" vertex="1" parent="1">
          <mxGeometry x="540" y="510" width="120" height="60" as="geometry" />
        </mxCell>
        <mxCell id="tMpePVOGPKYDXHrfdb_O-4" value="&lt;span style=&quot;font-size: 25px;&quot;&gt;Power&lt;/span&gt;" style="rounded=1;whiteSpace=wrap;html=1;" vertex="1" parent="1">
          <mxGeometry x="130" y="220" width="120" height="60" as="geometry" />
        </mxCell>
        <mxCell id="tMpePVOGPKYDXHrfdb_O-5" value="" style="rounded=1;whiteSpace=wrap;html=1;" vertex="1" parent="1">
          <mxGeometry x="170" y="530" width="160" height="40" as="geometry" />
        </mxCell>
      </root>
    </mxGraphModel>
  </diagram>
</mxfile>
